<mxfile host="Electron" agent="Mozilla/5.0 (Windows NT 10.0; Win64; x64) AppleWebKit/537.36 (KHTML, like Gecko) draw.io/24.7.17 Chrome/128.0.6613.36 Electron/32.0.1 Safari/537.36" version="24.7.17">
  <diagram name="Страница — 1" id="2J-rh70jFwcSjhUsL_Wy">
    <mxGraphModel dx="1235" dy="731" grid="1" gridSize="10" guides="1" tooltips="1" connect="1" arrows="1" fold="1" page="1" pageScale="1" pageWidth="827" pageHeight="1169" math="0" shadow="0">
      <root>
        <mxCell id="0" />
        <mxCell id="1" parent="0" />
        <mxCell id="GVOow4PJKVGRs8NmEhWK-1" value="&lt;font style=&quot;font-size: 14px;&quot; face=&quot;Times New Roman&quot;&gt;Начало&lt;/font&gt;" style="ellipse;whiteSpace=wrap;html=1;" vertex="1" parent="1">
          <mxGeometry x="70" y="30" width="240" height="50" as="geometry" />
        </mxCell>
        <mxCell id="GVOow4PJKVGRs8NmEhWK-2" value="" style="endArrow=classic;html=1;rounded=0;" edge="1" parent="1">
          <mxGeometry width="50" height="50" relative="1" as="geometry">
            <mxPoint x="190" y="80" as="sourcePoint" />
            <mxPoint x="190" y="120" as="targetPoint" />
          </mxGeometry>
        </mxCell>
        <mxCell id="GVOow4PJKVGRs8NmEhWK-3" value="&lt;div style=&quot;font-size: 14px;&quot;&gt;&lt;font style=&quot;font-size: 14px;&quot; face=&quot;Times New Roman&quot;&gt;DayTime allTimes = DayTime.Morning | DayTime.Noon | DayTime.Day |&lt;/font&gt;&lt;/div&gt;&lt;div style=&quot;font-size: 14px;&quot;&gt;&lt;font style=&quot;font-size: 14px;&quot; face=&quot;N_12Yvv4ehodWDq_QO_H&quot;&gt;&amp;nbsp; &amp;nbsp; &amp;nbsp; &amp;nbsp; &amp;nbsp; &amp;nbsp; &amp;nbsp; DayTime.Evening | DayTime.Midnight | DayTime.Night;&lt;/font&gt;&lt;/div&gt;" style="rounded=0;whiteSpace=wrap;html=1;" vertex="1" parent="1">
          <mxGeometry x="70" y="120" width="240" height="80" as="geometry" />
        </mxCell>
        <mxCell id="GVOow4PJKVGRs8NmEhWK-4" value="" style="endArrow=classic;html=1;rounded=0;" edge="1" parent="1">
          <mxGeometry width="50" height="50" relative="1" as="geometry">
            <mxPoint x="189.66000000000003" y="200" as="sourcePoint" />
            <mxPoint x="189.66000000000003" y="240" as="targetPoint" />
          </mxGeometry>
        </mxCell>
        <mxCell id="GVOow4PJKVGRs8NmEhWK-5" value="&lt;font style=&quot;font-size: 14px;&quot; face=&quot;Times New Roman&quot;&gt;int bit = 128; bit &amp;lt;= 4096; bit &amp;lt;&amp;lt;= 1&lt;/font&gt;" style="shape=hexagon;perimeter=hexagonPerimeter2;whiteSpace=wrap;html=1;fixedSize=1;" vertex="1" parent="1">
          <mxGeometry x="70" y="240" width="240" height="40" as="geometry" />
        </mxCell>
        <mxCell id="GVOow4PJKVGRs8NmEhWK-6" value="" style="endArrow=classic;html=1;rounded=0;" edge="1" parent="1">
          <mxGeometry width="50" height="50" relative="1" as="geometry">
            <mxPoint x="189.66000000000003" y="280" as="sourcePoint" />
            <mxPoint x="189.66000000000003" y="320" as="targetPoint" />
          </mxGeometry>
        </mxCell>
        <mxCell id="GVOow4PJKVGRs8NmEhWK-7" value="&lt;div style=&quot;&quot;&gt;&lt;font face=&quot;Times New Roman&quot;&gt;&lt;span style=&quot;font-size: 14px;&quot;&gt;DayTime current = (DayTime)bit;&lt;/span&gt;&lt;/font&gt;&lt;br&gt;&lt;/div&gt;" style="rounded=0;whiteSpace=wrap;html=1;" vertex="1" parent="1">
          <mxGeometry x="70" y="320" width="240" height="40" as="geometry" />
        </mxCell>
        <mxCell id="GVOow4PJKVGRs8NmEhWK-8" value="" style="endArrow=classic;html=1;rounded=0;" edge="1" parent="1">
          <mxGeometry width="50" height="50" relative="1" as="geometry">
            <mxPoint x="189.66000000000003" y="360" as="sourcePoint" />
            <mxPoint x="189.66000000000003" y="400" as="targetPoint" />
          </mxGeometry>
        </mxCell>
        <mxCell id="GVOow4PJKVGRs8NmEhWK-9" value="&lt;font style=&quot;font-size: 14px;&quot; face=&quot;Times New Roman&quot;&gt;(allTimes &amp;amp; current) != 0&lt;/font&gt;" style="rhombus;whiteSpace=wrap;html=1;" vertex="1" parent="1">
          <mxGeometry x="70" y="400" width="240" height="40" as="geometry" />
        </mxCell>
        <mxCell id="GVOow4PJKVGRs8NmEhWK-10" value="" style="endArrow=classic;html=1;rounded=0;" edge="1" parent="1">
          <mxGeometry width="50" height="50" relative="1" as="geometry">
            <mxPoint x="189.66000000000003" y="440" as="sourcePoint" />
            <mxPoint x="189.66000000000003" y="480" as="targetPoint" />
          </mxGeometry>
        </mxCell>
        <mxCell id="GVOow4PJKVGRs8NmEhWK-11" value="&lt;font face=&quot;Times New Roman&quot;&gt;&lt;span style=&quot;font-size: 14px;&quot;&gt;current?&lt;/span&gt;&lt;/font&gt;" style="rhombus;whiteSpace=wrap;html=1;" vertex="1" parent="1">
          <mxGeometry x="60" y="480" width="260" height="40" as="geometry" />
        </mxCell>
        <mxCell id="GVOow4PJKVGRs8NmEhWK-12" value="" style="endArrow=classic;html=1;rounded=0;" edge="1" parent="1">
          <mxGeometry width="50" height="50" relative="1" as="geometry">
            <mxPoint x="189.66000000000003" y="520" as="sourcePoint" />
            <mxPoint x="189.66000000000003" y="560" as="targetPoint" />
          </mxGeometry>
        </mxCell>
        <mxCell id="GVOow4PJKVGRs8NmEhWK-13" value="" style="endArrow=none;html=1;rounded=0;" edge="1" parent="1">
          <mxGeometry width="50" height="50" relative="1" as="geometry">
            <mxPoint x="60" y="540" as="sourcePoint" />
            <mxPoint x="190" y="540" as="targetPoint" />
          </mxGeometry>
        </mxCell>
        <mxCell id="GVOow4PJKVGRs8NmEhWK-14" value="&lt;span style=&quot;font-family: &amp;quot;Times New Roman&amp;quot;; font-size: 14px;&quot;&gt;Доброе утро!&lt;/span&gt;" style="shape=document;whiteSpace=wrap;html=1;boundedLbl=1;" vertex="1" parent="1">
          <mxGeometry x="70" y="560" width="240" height="80" as="geometry" />
        </mxCell>
        <mxCell id="GVOow4PJKVGRs8NmEhWK-15" value="" style="endArrow=none;html=1;rounded=0;" edge="1" parent="1">
          <mxGeometry width="50" height="50" relative="1" as="geometry">
            <mxPoint x="190" y="540" as="sourcePoint" />
            <mxPoint x="690" y="540" as="targetPoint" />
          </mxGeometry>
        </mxCell>
        <mxCell id="GVOow4PJKVGRs8NmEhWK-16" value="&lt;font face=&quot;Times New Roman&quot;&gt;&lt;span style=&quot;font-size: 14px;&quot;&gt;Добрый полдень!&lt;/span&gt;&lt;/font&gt;" style="shape=document;whiteSpace=wrap;html=1;boundedLbl=1;" vertex="1" parent="1">
          <mxGeometry x="320" y="560" width="240" height="80" as="geometry" />
        </mxCell>
        <mxCell id="GVOow4PJKVGRs8NmEhWK-17" value="&lt;font style=&quot;font-size: 14px;&quot; face=&quot;Times New Roman&quot;&gt;Добрый день!&lt;/font&gt;" style="shape=document;whiteSpace=wrap;html=1;boundedLbl=1;" vertex="1" parent="1">
          <mxGeometry x="570" y="560" width="240" height="80" as="geometry" />
        </mxCell>
        <mxCell id="GVOow4PJKVGRs8NmEhWK-18" value="&lt;font style=&quot;font-size: 14px;&quot; face=&quot;Times New Roman&quot;&gt;1&lt;/font&gt;" style="ellipse;whiteSpace=wrap;html=1;aspect=fixed;" vertex="1" parent="1">
          <mxGeometry x="40" y="530" width="20" height="20" as="geometry" />
        </mxCell>
        <mxCell id="GVOow4PJKVGRs8NmEhWK-19" value="" style="endArrow=classic;html=1;rounded=0;exitX=0.499;exitY=0.848;exitDx=0;exitDy=0;exitPerimeter=0;" edge="1" parent="1" source="GVOow4PJKVGRs8NmEhWK-14">
          <mxGeometry width="50" height="50" relative="1" as="geometry">
            <mxPoint x="190" y="630" as="sourcePoint" />
            <mxPoint x="190" y="660" as="targetPoint" />
          </mxGeometry>
        </mxCell>
        <mxCell id="GVOow4PJKVGRs8NmEhWK-20" value="" style="endArrow=classic;html=1;rounded=0;exitX=0.498;exitY=0.857;exitDx=0;exitDy=0;exitPerimeter=0;" edge="1" parent="1" source="GVOow4PJKVGRs8NmEhWK-16">
          <mxGeometry width="50" height="50" relative="1" as="geometry">
            <mxPoint x="439" y="630" as="sourcePoint" />
            <mxPoint x="440" y="660" as="targetPoint" />
          </mxGeometry>
        </mxCell>
        <mxCell id="GVOow4PJKVGRs8NmEhWK-21" value="" style="endArrow=classic;html=1;rounded=0;exitX=0.499;exitY=0.849;exitDx=0;exitDy=0;exitPerimeter=0;" edge="1" parent="1" source="GVOow4PJKVGRs8NmEhWK-17">
          <mxGeometry width="50" height="50" relative="1" as="geometry">
            <mxPoint x="640" y="690" as="sourcePoint" />
            <mxPoint x="690" y="660" as="targetPoint" />
          </mxGeometry>
        </mxCell>
        <mxCell id="GVOow4PJKVGRs8NmEhWK-22" value="" style="endArrow=classic;html=1;rounded=0;" edge="1" parent="1" target="GVOow4PJKVGRs8NmEhWK-17">
          <mxGeometry width="50" height="50" relative="1" as="geometry">
            <mxPoint x="690" y="540" as="sourcePoint" />
            <mxPoint x="740" y="490" as="targetPoint" />
          </mxGeometry>
        </mxCell>
        <mxCell id="GVOow4PJKVGRs8NmEhWK-23" value="" style="endArrow=classic;html=1;rounded=0;entryX=0.462;entryY=-0.011;entryDx=0;entryDy=0;entryPerimeter=0;" edge="1" parent="1" target="GVOow4PJKVGRs8NmEhWK-16">
          <mxGeometry width="50" height="50" relative="1" as="geometry">
            <mxPoint x="430" y="540" as="sourcePoint" />
            <mxPoint x="480" y="490" as="targetPoint" />
          </mxGeometry>
        </mxCell>
        <mxCell id="GVOow4PJKVGRs8NmEhWK-24" value="" style="endArrow=none;html=1;rounded=0;" edge="1" parent="1">
          <mxGeometry width="50" height="50" relative="1" as="geometry">
            <mxPoint x="60" y="660" as="sourcePoint" />
            <mxPoint x="690" y="660" as="targetPoint" />
          </mxGeometry>
        </mxCell>
        <mxCell id="GVOow4PJKVGRs8NmEhWK-25" value="&lt;font style=&quot;font-size: 14px;&quot; face=&quot;Times New Roman&quot;&gt;2&lt;/font&gt;" style="ellipse;whiteSpace=wrap;html=1;aspect=fixed;" vertex="1" parent="1">
          <mxGeometry x="40" y="650" width="20" height="20" as="geometry" />
        </mxCell>
        <mxCell id="GVOow4PJKVGRs8NmEhWK-26" value="" style="endArrow=classic;html=1;rounded=0;" edge="1" parent="1">
          <mxGeometry width="50" height="50" relative="1" as="geometry">
            <mxPoint x="161" y="960" as="sourcePoint" />
            <mxPoint x="160.66000000000003" y="980" as="targetPoint" />
          </mxGeometry>
        </mxCell>
        <mxCell id="GVOow4PJKVGRs8NmEhWK-27" value="&lt;font style=&quot;font-size: 14px;&quot; face=&quot;Times New Roman&quot;&gt;Добрый вечер!&lt;/font&gt;" style="shape=document;whiteSpace=wrap;html=1;boundedLbl=1;" vertex="1" parent="1">
          <mxGeometry x="41" y="980" width="240" height="80" as="geometry" />
        </mxCell>
        <mxCell id="GVOow4PJKVGRs8NmEhWK-28" value="&lt;font style=&quot;font-size: 14px;&quot; face=&quot;Times New Roman&quot;&gt;Доброй полночи!&lt;/font&gt;" style="shape=document;whiteSpace=wrap;html=1;boundedLbl=1;" vertex="1" parent="1">
          <mxGeometry x="291" y="980" width="240" height="80" as="geometry" />
        </mxCell>
        <mxCell id="GVOow4PJKVGRs8NmEhWK-29" value="&lt;font style=&quot;font-size: 14px;&quot; face=&quot;Times New Roman&quot;&gt;Спокойной ночи!&lt;/font&gt;" style="shape=document;whiteSpace=wrap;html=1;boundedLbl=1;" vertex="1" parent="1">
          <mxGeometry x="541" y="980" width="240" height="80" as="geometry" />
        </mxCell>
        <mxCell id="GVOow4PJKVGRs8NmEhWK-30" value="" style="endArrow=classic;html=1;rounded=0;exitX=0.499;exitY=0.848;exitDx=0;exitDy=0;exitPerimeter=0;" edge="1" parent="1" source="GVOow4PJKVGRs8NmEhWK-27">
          <mxGeometry width="50" height="50" relative="1" as="geometry">
            <mxPoint x="161" y="1050" as="sourcePoint" />
            <mxPoint x="161" y="1080" as="targetPoint" />
          </mxGeometry>
        </mxCell>
        <mxCell id="GVOow4PJKVGRs8NmEhWK-31" value="" style="endArrow=classic;html=1;rounded=0;exitX=0.498;exitY=0.857;exitDx=0;exitDy=0;exitPerimeter=0;" edge="1" parent="1" source="GVOow4PJKVGRs8NmEhWK-28">
          <mxGeometry width="50" height="50" relative="1" as="geometry">
            <mxPoint x="410" y="1050" as="sourcePoint" />
            <mxPoint x="411" y="1080" as="targetPoint" />
          </mxGeometry>
        </mxCell>
        <mxCell id="GVOow4PJKVGRs8NmEhWK-32" value="" style="endArrow=classic;html=1;rounded=0;exitX=0.499;exitY=0.849;exitDx=0;exitDy=0;exitPerimeter=0;" edge="1" parent="1" source="GVOow4PJKVGRs8NmEhWK-29">
          <mxGeometry width="50" height="50" relative="1" as="geometry">
            <mxPoint x="611" y="1110" as="sourcePoint" />
            <mxPoint x="661" y="1080" as="targetPoint" />
          </mxGeometry>
        </mxCell>
        <mxCell id="GVOow4PJKVGRs8NmEhWK-33" value="" style="endArrow=classic;html=1;rounded=0;" edge="1" parent="1" target="GVOow4PJKVGRs8NmEhWK-29">
          <mxGeometry width="50" height="50" relative="1" as="geometry">
            <mxPoint x="661" y="960" as="sourcePoint" />
            <mxPoint x="711" y="910" as="targetPoint" />
          </mxGeometry>
        </mxCell>
        <mxCell id="GVOow4PJKVGRs8NmEhWK-34" value="" style="endArrow=classic;html=1;rounded=0;entryX=0.462;entryY=-0.011;entryDx=0;entryDy=0;entryPerimeter=0;" edge="1" parent="1" target="GVOow4PJKVGRs8NmEhWK-28">
          <mxGeometry width="50" height="50" relative="1" as="geometry">
            <mxPoint x="401" y="960" as="sourcePoint" />
            <mxPoint x="451" y="910" as="targetPoint" />
          </mxGeometry>
        </mxCell>
        <mxCell id="GVOow4PJKVGRs8NmEhWK-39" value="&lt;font style=&quot;font-size: 14px;&quot; face=&quot;Times New Roman&quot;&gt;False&lt;/font&gt;" style="text;html=1;align=center;verticalAlign=middle;resizable=0;points=[];autosize=1;strokeColor=none;fillColor=none;" vertex="1" parent="1">
          <mxGeometry x="310" y="390" width="50" height="30" as="geometry" />
        </mxCell>
        <mxCell id="GVOow4PJKVGRs8NmEhWK-40" value="&lt;font style=&quot;font-size: 14px;&quot; face=&quot;Times New Roman&quot;&gt;True&lt;/font&gt;" style="text;html=1;align=center;verticalAlign=middle;resizable=0;points=[];autosize=1;strokeColor=none;fillColor=none;" vertex="1" parent="1">
          <mxGeometry x="180" y="430" width="50" height="30" as="geometry" />
        </mxCell>
        <mxCell id="GVOow4PJKVGRs8NmEhWK-41" value="&lt;font face=&quot;Times New Roman&quot;&gt;&lt;span style=&quot;font-size: 14px;&quot;&gt;Конец&lt;/span&gt;&lt;/font&gt;" style="ellipse;whiteSpace=wrap;html=1;" vertex="1" parent="1">
          <mxGeometry x="76" y="740" width="240" height="50" as="geometry" />
        </mxCell>
        <mxCell id="GVOow4PJKVGRs8NmEhWK-42" value="" style="endArrow=none;html=1;rounded=0;" edge="1" parent="1">
          <mxGeometry width="50" height="50" relative="1" as="geometry">
            <mxPoint x="31" y="960" as="sourcePoint" />
            <mxPoint x="791" y="960" as="targetPoint" />
          </mxGeometry>
        </mxCell>
        <mxCell id="GVOow4PJKVGRs8NmEhWK-44" value="&lt;font style=&quot;font-size: 14px;&quot; face=&quot;Times New Roman&quot;&gt;1&lt;/font&gt;" style="ellipse;whiteSpace=wrap;html=1;aspect=fixed;" vertex="1" parent="1">
          <mxGeometry x="791" y="950" width="20" height="20" as="geometry" />
        </mxCell>
        <mxCell id="GVOow4PJKVGRs8NmEhWK-45" value="" style="endArrow=none;html=1;rounded=0;" edge="1" parent="1">
          <mxGeometry width="50" height="50" relative="1" as="geometry">
            <mxPoint x="31" y="1080" as="sourcePoint" />
            <mxPoint x="791" y="1080" as="targetPoint" />
          </mxGeometry>
        </mxCell>
        <mxCell id="GVOow4PJKVGRs8NmEhWK-46" value="&lt;font style=&quot;font-size: 14px;&quot; face=&quot;Times New Roman&quot;&gt;2&lt;/font&gt;" style="ellipse;whiteSpace=wrap;html=1;aspect=fixed;" vertex="1" parent="1">
          <mxGeometry x="791" y="1069" width="20" height="20" as="geometry" />
        </mxCell>
        <mxCell id="GVOow4PJKVGRs8NmEhWK-47" value="" style="endArrow=none;html=1;rounded=0;" edge="1" parent="1">
          <mxGeometry width="50" height="50" relative="1" as="geometry">
            <mxPoint x="31" y="960" as="sourcePoint" />
            <mxPoint x="31" y="1080" as="targetPoint" />
          </mxGeometry>
        </mxCell>
        <mxCell id="GVOow4PJKVGRs8NmEhWK-48" value="&lt;font style=&quot;font-size: 14px;&quot; face=&quot;Times New Roman&quot;&gt;DayTime.Morning&lt;/font&gt;" style="text;html=1;align=center;verticalAlign=middle;resizable=0;points=[];autosize=1;strokeColor=none;fillColor=none;" vertex="1" parent="1">
          <mxGeometry x="70" y="510" width="130" height="30" as="geometry" />
        </mxCell>
        <mxCell id="GVOow4PJKVGRs8NmEhWK-49" value="&lt;font face=&quot;Times New Roman&quot;&gt;&lt;span style=&quot;font-size: 14px;&quot;&gt;DayTime.Noon&lt;/span&gt;&lt;/font&gt;" style="text;html=1;align=center;verticalAlign=middle;resizable=0;points=[];autosize=1;strokeColor=none;fillColor=none;" vertex="1" parent="1">
          <mxGeometry x="385" y="510" width="110" height="30" as="geometry" />
        </mxCell>
        <mxCell id="GVOow4PJKVGRs8NmEhWK-50" value="&lt;font face=&quot;Times New Roman&quot;&gt;&lt;span style=&quot;font-size: 14px;&quot;&gt;DayTime.Day&lt;/span&gt;&lt;/font&gt;" style="text;html=1;align=center;verticalAlign=middle;resizable=0;points=[];autosize=1;strokeColor=none;fillColor=none;" vertex="1" parent="1">
          <mxGeometry x="640" y="510" width="100" height="30" as="geometry" />
        </mxCell>
        <mxCell id="GVOow4PJKVGRs8NmEhWK-51" value="&lt;font face=&quot;Times New Roman&quot;&gt;&lt;span style=&quot;font-size: 14px;&quot;&gt;DayTime.Evening&lt;/span&gt;&lt;/font&gt;" style="text;html=1;align=center;verticalAlign=middle;resizable=0;points=[];autosize=1;strokeColor=none;fillColor=none;" vertex="1" parent="1">
          <mxGeometry x="96" y="930" width="130" height="30" as="geometry" />
        </mxCell>
        <mxCell id="GVOow4PJKVGRs8NmEhWK-52" value="&lt;font face=&quot;Times New Roman&quot;&gt;&lt;span style=&quot;font-size: 14px;&quot;&gt;DayTime.Midnight&lt;/span&gt;&lt;/font&gt;" style="text;html=1;align=center;verticalAlign=middle;resizable=0;points=[];autosize=1;strokeColor=none;fillColor=none;" vertex="1" parent="1">
          <mxGeometry x="331" y="930" width="130" height="30" as="geometry" />
        </mxCell>
        <mxCell id="GVOow4PJKVGRs8NmEhWK-53" value="&lt;font face=&quot;Times New Roman&quot;&gt;&lt;span style=&quot;font-size: 14px;&quot;&gt;DayTime.Night&lt;/span&gt;&lt;/font&gt;" style="text;html=1;align=center;verticalAlign=middle;resizable=0;points=[];autosize=1;strokeColor=none;fillColor=none;" vertex="1" parent="1">
          <mxGeometry x="606" y="930" width="110" height="30" as="geometry" />
        </mxCell>
        <mxCell id="GVOow4PJKVGRs8NmEhWK-54" value="&lt;font face=&quot;Times New Roman&quot;&gt;&lt;span style=&quot;font-size: 14px;&quot;&gt;default&lt;/span&gt;&lt;/font&gt;" style="text;html=1;align=center;verticalAlign=middle;resizable=0;points=[];autosize=1;strokeColor=none;fillColor=none;" vertex="1" parent="1">
          <mxGeometry x="16" y="930" width="60" height="30" as="geometry" />
        </mxCell>
        <mxCell id="GVOow4PJKVGRs8NmEhWK-55" value="" style="endArrow=none;html=1;rounded=0;" edge="1" parent="1">
          <mxGeometry width="50" height="50" relative="1" as="geometry">
            <mxPoint x="310" y="420" as="sourcePoint" />
            <mxPoint x="830" y="420" as="targetPoint" />
          </mxGeometry>
        </mxCell>
        <mxCell id="GVOow4PJKVGRs8NmEhWK-56" value="" style="endArrow=none;html=1;rounded=0;" edge="1" parent="1">
          <mxGeometry width="50" height="50" relative="1" as="geometry">
            <mxPoint x="830" y="420" as="sourcePoint" />
            <mxPoint x="830" y="690" as="targetPoint" />
          </mxGeometry>
        </mxCell>
        <mxCell id="GVOow4PJKVGRs8NmEhWK-58" value="" style="endArrow=classic;html=1;rounded=0;" edge="1" parent="1">
          <mxGeometry width="50" height="50" relative="1" as="geometry">
            <mxPoint x="830.4571707589286" y="690" as="sourcePoint" />
            <mxPoint x="190" y="690" as="targetPoint" />
          </mxGeometry>
        </mxCell>
        <mxCell id="GVOow4PJKVGRs8NmEhWK-59" value="" style="endArrow=none;html=1;rounded=0;" edge="1" parent="1">
          <mxGeometry width="50" height="50" relative="1" as="geometry">
            <mxPoint x="190" y="700" as="sourcePoint" />
            <mxPoint x="190" y="660" as="targetPoint" />
          </mxGeometry>
        </mxCell>
        <mxCell id="GVOow4PJKVGRs8NmEhWK-60" value="" style="endArrow=none;html=1;rounded=0;" edge="1" parent="1">
          <mxGeometry width="50" height="50" relative="1" as="geometry">
            <mxPoint x="30" y="700" as="sourcePoint" />
            <mxPoint x="190" y="700" as="targetPoint" />
          </mxGeometry>
        </mxCell>
        <mxCell id="GVOow4PJKVGRs8NmEhWK-61" value="" style="endArrow=none;html=1;rounded=0;" edge="1" parent="1">
          <mxGeometry width="50" height="50" relative="1" as="geometry">
            <mxPoint x="30" y="700" as="sourcePoint" />
            <mxPoint x="30" y="260" as="targetPoint" />
          </mxGeometry>
        </mxCell>
        <mxCell id="GVOow4PJKVGRs8NmEhWK-62" value="" style="endArrow=classic;html=1;rounded=0;" edge="1" parent="1" target="GVOow4PJKVGRs8NmEhWK-5">
          <mxGeometry width="50" height="50" relative="1" as="geometry">
            <mxPoint x="30" y="260" as="sourcePoint" />
            <mxPoint x="80" y="210" as="targetPoint" />
          </mxGeometry>
        </mxCell>
        <mxCell id="GVOow4PJKVGRs8NmEhWK-63" value="" style="endArrow=none;html=1;rounded=0;" edge="1" parent="1">
          <mxGeometry width="50" height="50" relative="1" as="geometry">
            <mxPoint x="310" y="260" as="sourcePoint" />
            <mxPoint x="840" y="260" as="targetPoint" />
          </mxGeometry>
        </mxCell>
        <mxCell id="GVOow4PJKVGRs8NmEhWK-64" value="" style="endArrow=none;html=1;rounded=0;" edge="1" parent="1">
          <mxGeometry width="50" height="50" relative="1" as="geometry">
            <mxPoint x="840" y="710" as="sourcePoint" />
            <mxPoint x="840" y="260" as="targetPoint" />
          </mxGeometry>
        </mxCell>
        <mxCell id="GVOow4PJKVGRs8NmEhWK-65" value="" style="endArrow=none;html=1;rounded=0;" edge="1" parent="1">
          <mxGeometry width="50" height="50" relative="1" as="geometry">
            <mxPoint x="190" y="710" as="sourcePoint" />
            <mxPoint x="840" y="710" as="targetPoint" />
          </mxGeometry>
        </mxCell>
        <mxCell id="GVOow4PJKVGRs8NmEhWK-66" value="" style="endArrow=classic;html=1;rounded=0;" edge="1" parent="1">
          <mxGeometry width="50" height="50" relative="1" as="geometry">
            <mxPoint x="190" y="710" as="sourcePoint" />
            <mxPoint x="190" y="740" as="targetPoint" />
          </mxGeometry>
        </mxCell>
      </root>
    </mxGraphModel>
  </diagram>
</mxfile>
